<svg data-v-423bf9ae="" xmlns="http://www.w3.org/2000/svg" viewBox="0 0 264.67245013307036 178" class="iconAbove"><!----><!----><!----><g data-v-423bf9ae="" id="e3bfb03e-279c-4adc-98f4-e7c98afb234d" fill="#2A2F1F" transform="matrix(4.735595867300924,0,0,4.735595867300924,-4.640885027682316,107.28976135977248)"><path d="M0.98 12.29L0.98 2.69L3.96 2.69L3.96 2.69Q5.68 2.69 6.64 3.88L6.64 3.88L6.64 3.88Q7.60 5.07 7.60 7.35L7.60 7.35L7.60 7.35Q7.60 9.79 6.65 11.04L6.65 11.04L6.65 11.04Q5.70 12.29 3.96 12.29L3.96 12.29L0.98 12.29ZM2.21 11.17L3.85 11.17L3.85 11.17Q5.01 11.17 5.66 10.30L5.66 10.30L5.66 10.30Q6.31 9.42 6.31 7.70L6.31 7.70L6.31 7L6.31 7Q6.31 5.43 5.66 4.62L5.66 4.62L5.66 4.62Q5.01 3.81 3.85 3.81L3.85 3.81L2.21 3.81L2.21 11.17ZM11.48 12.46L11.48 12.46Q10.18 12.46 9.51 11.52L9.51 11.52L9.51 11.52Q8.85 10.57 8.85 8.61L8.85 8.61L8.85 8.61Q8.85 6.65 9.51 5.71L9.51 5.71L9.51 5.71Q10.18 4.76 11.48 4.76L11.48 4.76L11.48 4.76Q12.78 4.76 13.45 5.71L13.45 5.71L13.45 5.71Q14.11 6.65 14.11 8.61L14.11 8.61L14.11 8.61Q14.11 10.57 13.45 11.52L13.45 11.52L13.45 11.52Q12.78 12.46 11.48 12.46L11.48 12.46ZM11.48 11.44L11.48 11.44Q12.91 11.44 12.91 8.88L12.91 8.88L12.91 8.34L12.91 8.34Q12.91 5.78 11.48 5.78L11.48 5.78L11.48 5.78Q10.05 5.78 10.05 8.34L10.05 8.34L10.05 8.88L10.05 8.88Q10.05 11.44 11.48 11.44L11.48 11.44ZM16.67 14.84L16.67 14.84Q15.81 14.84 15.33 14.34L15.33 14.34L15.33 14.34Q14.85 13.85 14.85 13.09L14.85 13.09L14.85 13.09Q14.85 12.54 15.11 12.12L15.11 12.12L15.11 12.12Q15.37 11.69 15.81 11.52L15.81 11.52L15.81 11.52Q15.53 11.34 15.37 11.05L15.37 11.05L15.37 11.05Q15.20 10.75 15.20 10.42L15.20 10.42L15.20 10.42Q15.20 9.98 15.48 9.65L15.48 9.65L15.48 9.65Q15.76 9.31 16.24 9.14L16.24 9.14L16.24 9.14Q15.39 8.44 15.39 7.24L15.39 7.24L15.39 7.24Q15.39 6.08 16.03 5.42L16.03 5.42L16.03 5.42Q16.67 4.76 17.79 4.76L17.79 4.76L17.79 4.76Q18.37 4.76 18.86 5.03L18.86 5.03L18.86 5.03Q19.31 4.79 19.51 4.47L19.51 4.47L19.51 4.47Q19.71 4.14 19.77 3.74L19.77 3.74L20.78 3.74L20.78 3.74Q20.78 4.41 20.45 4.89L20.45 4.89L20.45 4.89Q20.12 5.36 19.54 5.50L19.54 5.50L19.54 5.50Q20.20 6.19 20.20 7.24L20.20 7.24L20.20 7.24Q20.20 8.37 19.57 9.04L19.57 9.04L19.57 9.04Q18.93 9.70 17.85 9.72L17.85 9.72L17.08 9.72L17.08 9.72Q16.80 9.72 16.60 9.90L16.60 9.90L16.60 9.90Q16.41 10.09 16.41 10.37L16.41 10.37L16.41 10.37Q16.41 10.64 16.60 10.84L16.60 10.84L16.60 10.84Q16.80 11.03 17.08 11.03L17.08 11.03L19.18 11.03L19.18 11.03Q19.96 11.03 20.44 11.53L20.44 11.53L20.44 11.53Q20.92 12.03 20.92 12.75L20.92 12.75L20.92 12.75Q20.92 13.66 20.35 14.25L20.35 14.25L20.35 14.25Q19.78 14.84 18.76 14.84L18.76 14.84L16.67 14.84ZM17.78 8.76L17.78 8.76Q18.38 8.76 18.71 8.36L18.71 8.36L18.71 8.36Q19.04 7.95 19.04 7.24L19.04 7.24L19.04 7.24Q19.04 6.50 18.71 6.10L18.71 6.10L18.71 6.10Q18.38 5.71 17.78 5.71L17.78 5.71L17.78 5.71Q17.18 5.71 16.86 6.12L16.86 6.12L16.86 6.12Q16.53 6.52 16.53 7.24L16.53 7.24L16.53 7.24Q16.53 7.98 16.86 8.37L16.86 8.37L16.86 8.37Q17.18 8.76 17.78 8.76L17.78 8.76ZM16.86 13.85L18.89 13.85L18.89 13.85Q19.25 13.85 19.50 13.59L19.50 13.59L19.50 13.59Q19.75 13.34 19.75 12.98L19.75 12.98L19.75 12.98Q19.75 12.60 19.53 12.36L19.53 12.36L19.53 12.36Q19.31 12.12 18.89 12.12L18.89 12.12L16.86 12.12L16.86 12.12Q16.44 12.12 16.22 12.36L16.22 12.36L16.22 12.36Q16.00 12.60 16.00 12.98L16.00 12.98L16.00 12.98Q16.00 13.36 16.23 13.60L16.23 13.60L16.23 13.60Q16.45 13.85 16.86 13.85L16.86 13.85ZM21.97 12.29L21.97 2.69L25.61 2.69L25.61 2.69Q26.68 2.69 27.38 3.34L27.38 3.34L27.38 3.34Q28.08 3.99 28.08 5.04L28.08 5.04L28.08 5.04Q28.08 5.84 27.67 6.43L27.67 6.43L27.67 6.43Q27.26 7.03 26.61 7.25L26.61 7.25L26.61 7.31L26.61 7.31Q27.36 7.53 27.83 8.19L27.83 8.19L27.83 8.19Q28.31 8.85 28.31 9.74L28.31 9.74L28.31 9.74Q28.31 10.53 27.94 11.10L27.94 11.10L27.94 11.10Q27.58 11.68 26.96 11.98L26.96 11.98L26.96 11.98Q26.35 12.29 25.61 12.29L25.61 12.29L21.97 12.29ZM23.20 6.82L25.24 6.82L25.24 6.82Q25.93 6.82 26.36 6.38L26.36 6.38L26.36 6.38Q26.80 5.94 26.80 5.31L26.80 5.31L26.80 5.31Q26.80 4.56 26.40 4.19L26.40 4.19L26.40 4.19Q26.01 3.81 25.33 3.81L25.33 3.81L23.20 3.81L23.20 6.82ZM23.20 11.17L25.44 11.17L25.44 11.17Q26.14 11.17 26.58 10.75L26.58 10.75L26.58 10.75Q27.02 10.33 27.02 9.58L27.02 9.58L27.02 9.58Q27.02 8.90 26.56 8.42L26.56 8.42L26.56 8.42Q26.10 7.94 25.35 7.94L25.35 7.94L23.20 7.94L23.20 11.17ZM29.55 12.29L29.55 4.93L30.42 4.93L30.58 5.89L30.66 5.89L30.66 5.89Q30.81 5.40 31.12 5.08L31.12 5.08L31.12 5.08Q31.43 4.76 31.91 4.76L31.91 4.76L31.91 4.76Q32.10 4.76 32.26 4.81L32.26 4.81L32.26 4.81Q32.41 4.86 32.45 4.87L32.45 4.87L32.45 6.06L32.07 6.06L32.07 6.06Q31.47 6.06 31.09 6.47L31.09 6.47L31.09 6.47Q30.70 6.89 30.70 7.80L30.70 7.80L30.70 12.29L29.55 12.29ZM35.91 12.46L35.91 12.46Q34.51 12.46 33.82 11.54L33.82 11.54L33.82 11.54Q33.12 10.63 33.12 8.61L33.12 8.61L33.12 8.61Q33.12 6.64 33.81 5.70L33.81 5.70L33.81 5.70Q34.50 4.76 35.90 4.76L35.90 4.76L35.90 4.76Q37.13 4.76 37.72 5.58L37.72 5.58L37.72 5.58Q38.32 6.40 38.32 8.22L38.32 8.22L38.32 8.95L34.33 8.95L34.33 8.95Q34.34 10.23 34.73 10.84L34.73 10.84L34.73 10.84Q35.11 11.44 35.94 11.44L35.94 11.44L35.94 11.44Q36.50 11.44 36.84 10.99L36.84 10.99L36.84 10.99Q37.18 10.54 37.18 9.79L37.18 9.79L38.32 9.79L38.32 9.79Q38.32 11.02 37.65 11.74L37.65 11.74L37.65 11.74Q36.99 12.46 35.91 12.46L35.91 12.46ZM34.34 7.92L37.11 7.92L37.11 7.92Q37.11 6.87 36.81 6.33L36.81 6.33L36.81 6.33Q36.50 5.78 35.90 5.78L35.90 5.78L35.90 5.78Q35.15 5.78 34.78 6.31L34.78 6.31L34.78 6.31Q34.41 6.83 34.34 7.92L34.34 7.92ZM42.29 12.46L42.29 12.46Q40.89 12.46 40.20 11.54L40.20 11.54L40.20 11.54Q39.51 10.63 39.51 8.61L39.51 8.61L39.51 8.61Q39.51 6.64 40.19 5.70L40.19 5.70L40.19 5.70Q40.88 4.76 42.28 4.76L42.28 4.76L42.28 4.76Q43.51 4.76 44.11 5.58L44.11 5.58L44.11 5.58Q44.70 6.40 44.70 8.22L44.70 8.22L44.70 8.95L40.71 8.95L40.71 8.95Q40.73 10.23 41.11 10.84L41.11 10.84L41.11 10.84Q41.50 11.44 42.32 11.44L42.32 11.44L42.32 11.44Q42.88 11.44 43.23 10.99L43.23 10.99L43.23 10.99Q43.57 10.54 43.57 9.79L43.57 9.79L44.70 9.79L44.70 9.79Q44.70 11.02 44.04 11.74L44.04 11.74L44.04 11.74Q43.37 12.46 42.29 12.46L42.29 12.46ZM40.73 7.92L43.50 7.92L43.50 7.92Q43.50 6.87 43.19 6.33L43.19 6.33L43.19 6.33Q42.88 5.78 42.28 5.78L42.28 5.78L42.28 5.78Q41.54 5.78 41.17 6.31L41.17 6.31L41.17 6.31Q40.80 6.83 40.73 7.92L40.73 7.92ZM48.15 12.46L48.15 12.46Q47.05 12.46 46.46 11.51L46.46 11.51L46.46 11.51Q45.86 10.56 45.86 8.60L45.86 8.60L45.86 8.60Q45.86 6.69 46.47 5.73L46.47 5.73L46.47 5.73Q47.08 4.76 48.06 4.76L48.06 4.76L48.06 4.76Q48.61 4.76 49.03 4.99L49.03 4.99L49.03 4.99Q49.45 5.22 49.63 5.63L49.63 5.63L49.70 5.63L49.70 2.17L50.85 2.17L50.85 12.29L49.98 12.29L49.83 11.44L49.76 11.44L49.76 11.44Q49.49 11.94 49.07 12.20L49.07 12.20L49.07 12.20Q48.65 12.46 48.15 12.46L48.15 12.46ZM48.38 11.44L48.38 11.44Q49.70 11.44 49.70 8.88L49.70 8.88L49.70 8.40L49.70 8.40Q49.70 5.78 48.38 5.78L48.38 5.78L48.38 5.78Q47.71 5.78 47.39 6.38L47.39 6.38L47.39 6.38Q47.07 6.99 47.07 8.34L47.07 8.34L47.07 8.88L47.07 8.88Q47.07 10.23 47.39 10.84L47.39 10.84L47.39 10.84Q47.71 11.44 48.38 11.44L48.38 11.44ZM54.52 12.46L54.52 12.46Q53.33 12.46 52.74 11.84L52.74 11.84L52.74 11.84Q52.15 11.21 52.15 10.30L52.15 10.30L52.15 10.30Q52.15 10.14 52.16 10.07L52.16 10.07L52.16 10.07Q52.16 10.01 52.16 10.00L52.16 10.00L53.37 10.00L53.37 10.14L53.37 10.14Q53.37 10.79 53.70 11.12L53.70 11.12L53.70 11.12Q54.04 11.45 54.57 11.45L54.57 11.45L54.57 11.45Q55.05 11.45 55.36 11.16L55.36 11.16L55.36 11.16Q55.68 10.88 55.68 10.36L55.68 10.36L55.68 10.36Q55.68 9.97 55.48 9.72L55.48 9.72L55.48 9.72Q55.29 9.46 55.01 9.32L55.01 9.32L55.01 9.32Q54.73 9.17 54.22 8.99L54.22 8.99L54.22 8.99Q53.61 8.78 53.23 8.57L53.23 8.57L53.23 8.57Q52.85 8.36 52.58 7.94L52.58 7.94L52.58 7.94Q52.32 7.53 52.32 6.86L52.32 6.86L52.32 6.86Q52.32 5.89 52.94 5.33L52.94 5.33L52.94 5.33Q53.56 4.76 54.61 4.76L54.61 4.76L54.61 4.76Q55.61 4.76 56.17 5.34L56.17 5.34L56.17 5.34Q56.73 5.92 56.73 6.78L56.73 6.78L56.71 7.04L55.52 7.04L55.52 6.92L55.52 6.92Q55.52 6.43 55.29 6.10L55.29 6.10L55.29 6.10Q55.05 5.77 54.50 5.77L54.50 5.77L54.50 5.77Q53.96 5.77 53.73 6.08L53.73 6.08L53.73 6.08Q53.51 6.38 53.51 6.78L53.51 6.78L53.51 6.78Q53.51 7.25 53.84 7.48L53.84 7.48L53.84 7.48Q54.17 7.71 54.85 7.94L54.85 7.94L54.85 7.94Q55.48 8.16 55.89 8.38L55.89 8.38L55.89 8.38Q56.29 8.60 56.58 9.03L56.58 9.03L56.58 9.03Q56.87 9.46 56.87 10.19L56.87 10.19L56.87 10.19Q56.87 11.33 56.23 11.89L56.23 11.89L56.23 11.89Q55.59 12.46 54.52 12.46L54.52 12.46Z"></path></g><defs data-v-423bf9ae=""><linearGradient data-v-423bf9ae="" gradientTransform="rotate(25)" id="fbeff92a-9b33-44b8-a981-c94aa34d9b3c" x1="0%" y1="0%" x2="100%" y2="0%"><stop data-v-423bf9ae="" offset="0%" style="stop-color: rgb(148, 80, 105); stop-opacity: 1;"></stop><stop data-v-423bf9ae="" offset="100%" style="stop-color: rgb(134, 200, 102); stop-opacity: 1;"></stop></linearGradient></defs><g data-v-423bf9ae="" id="637ff91f-1fee-4d29-8c79-d083d17dbd9f" transform="matrix(1.077888912624783,0,0,1.077888912624783,78.568494942484,-0.360891770799455)" stroke="none" fill="url(#fbeff92a-9b33-44b8-a981-c94aa34d9b3c)"><path d="M71.011 43.139c-.474 0-.937-.239-1.201-.673a1.41 1.41 0 0 1 .467-1.934c.418-.254.639-.552.716-.961.251-1.335-1.014-3.367-1.477-3.973l-.39-.511.128-.633c1.593-7.608-2.896-18.518-2.942-18.627-1.698-3.607-2.206-6.889-2.308-9.185-1.096 9.186-4.483 12.854-4.631 13.011l-.11.104c-6.789 5.771-4.68 13.581-4.658 13.66a1.404 1.404 0 0 1-.97 1.735 1.408 1.408 0 0 1-1.736-.971c-.109-.389-2.59-9.581 5.467-16.501.335-.401 3.109-3.931 3.933-12.169l.025-.23.096-.211c.489-1.078 1.908-2.902 4.114-2.902h1.68l-.296 1.654c-.008.044-.811 4.967 1.964 10.866.22.524 4.674 11.354 3.243 19.731.704 1.059 2.047 3.438 1.634 5.662-.222 1.196-.919 2.183-2.015 2.853a1.407 1.407 0 0 1-.733.205z"></path><path d="M56.97 98.01l-.363-1.549C53.74 84.279 43.017 76.68 42.908 76.605a1.405 1.405 0 1 1 1.608-2.307c.459.32 10.852 7.688 14.424 19.984L94.627 81.1c-1.654-5.789-9.393-30.659-23.276-41.96a1.405 1.405 0 1 1 1.776-2.181c16.417 13.363 24.235 43.393 24.56 44.665L98 82.852 56.97 98.01z"></path><path d="M26.436 86.398c-1.374 0-2.726-.256-4.045-.764-11.446-4.406-16.116-26.816-16.31-27.77a1.406 1.406 0 0 1 1.099-1.656 1.402 1.402 0 0 1 1.659 1.098c.043.217 4.551 21.854 14.564 25.704 3.229 1.242 6.665.471 10.5-2.361.182-.121 12.319-8.172 18.95-14.436a1.405 1.405 0 0 1 1.988.059 1.404 1.404 0 0 1-.057 1.986c-6.81 6.432-18.766 14.361-19.271 14.695-3.096 2.287-6.143 3.445-9.077 3.445z"></path><path d="M11.212 78.775c-1.253 0-2.187-.428-2.84-.91-5.205-3.838-2.849-19.129-2.563-20.859a1.406 1.406 0 0 1 2.774.457c-.97 5.883-1.43 16.01 1.458 18.139.284.207 1.146.846 3.384-.273a1.407 1.407 0 0 1 1.258 2.516c-1.357.678-2.507.93-3.471.93z"></path><path d="M16.047 82.111c-1.369 0-3.866-.508-5.682-3.809a1.403 1.403 0 0 1 .555-1.908 1.403 1.403 0 0 1 1.909.555c1.475 2.676 3.344 2.375 3.555 2.33a1.417 1.417 0 0 1 1.672 1.059 1.393 1.393 0 0 1-1.017 1.674c-.049.011-.423.099-.992.099zM12.205 59.344c-.549 0-1.278-.197-1.931-.607-1.16.617-2.737.182-4.982-1.58-2.087-1.639-2.383-3.303-2.266-4.412.34-3.185 4.381-5.245 4.841-5.469l.46-.225.498.124c3.183.795 4.716 3.655 5.011 4.267 1.533 2.461 1.559 3.799 1.527 4.152l-.021.283-.131.25c-1.68 3.217-2.478 3.217-3.006 3.217zm-.578-3.1c.048.043.108.084.172.123.208-.301.47-.725.722-1.176-.084-.324-.338-1.098-1.111-2.326l-.099-.186c-.006-.014-.878-1.905-2.682-2.621-1.088.638-2.688 1.869-2.807 2.984-.06.586.345 1.225 1.206 1.902.751.588 1.269.9 1.605 1.064-.051-.457.003-.895.307-1.283l.422-.545 1.319-.02.666.652.16.369c.075.167.252.561.12 1.063z"></path><path d="M9.04 49.676c-.63 0-1.203-.426-1.364-1.065A1.407 1.407 0 0 1 8.7 46.906c9.454-2.363 13.937-4.422 15.346-5.147.489-2.247 1.555-5.75 1.604-5.914l.099-.321.231-.242C34.769 26.1 52.4 25.246 53.148 25.215c.752-.011 1.43.568 1.463 1.344s-.568 1.432-1.343 1.465c-.17.007-16.93.826-25.025 8.966-.309 1.036-1.264 4.286-1.565 5.939l-.111.615-.533.329c-.177.11-4.486 2.721-16.649 5.762a1.414 1.414 0 0 1-.345.041z"></path><path d="M43.334 29.349a1.405 1.405 0 0 1-1.259-2.035c3.041-6.079 1.926-9.647 1.914-9.682-1.402-4.601-.669-13.07-.639-13.427L43.636 1l2.158 2.385c3.908 4.32 3.953 8.512 3.953 8.688 0 3.049 1.075 4.268 1.123 4.318 3.492 3.904 4.13 8.529 4.155 8.724a1.406 1.406 0 0 1-1.211 1.577 1.414 1.414 0 0 1-1.576-1.208c-.006-.04-.57-3.982-3.434-7.184-.144-.139-1.87-1.988-1.87-6.227 0-.083-.039-1.523-.982-3.499-.048 2.666.055 6.028.712 8.19.045.123 1.555 4.553-2.073 11.806a1.4 1.4 0 0 1-1.257.779z"></path><path d="M64.399 36.149a1.404 1.404 0 0 1-.734-2.605c.126-.084 2.208-1.535.9-5.751-.081-.301-1.614-6.134-.578-9.86l.048-.146c.02-.052.407-1.164-.074-2.834-.74 1.512-1.369 3.097-1.369 3.922v.651l-.498.424c-.063.053-6.35 5.461-4.147 10.654a1.406 1.406 0 1 1-2.589 1.099c-2.628-6.193 2.814-11.941 4.474-13.5.358-2.56 2.52-6.268 2.983-7.042l1.128-1.879 1.238 1.81c2.608 3.815 1.715 7.019 1.505 7.636-.668 2.486.192 6.817.583 8.286 1.99 6.414-1.989 8.841-2.16 8.941a1.39 1.39 0 0 1-.71.194zM37.51 47.491a8.03 8.03 0 0 1-.378-.008l-.458-.021-.357-.286c-.146-.118-3.578-2.942-1.776-8.344l.276-.832.881-.118s.29-.039.776-.039c1.517 0 5.308.396 7.746 4.055l.442.662-.341.72c-.081.171-2.05 4.211-6.811 4.211zm-.556-6.818c-.418 2.133.367 3.444.825 3.999 1.849-.097 2.992-1.181 3.561-1.917-1.431-1.612-3.285-2.004-4.386-2.082z"></path><path d="M37.466 46.082c-1.518 0-2.718-1.323-2.857-3.144-.141-1.831.915-3.286 2.562-3.539l.531-.082.447.291c.398.258 2.385 1.636 2.396 3.5.004.672-.24 1.643-1.437 2.44-.532.354-1.083.534-1.642.534zm-.058-3.456c.002.222.062.44.132.575.184-.122.216-.17.216-.17-.028-.062-.162-.219-.348-.405zM47.962 28.215a1.405 1.405 0 0 1-1.123-2.251c2.723-3.63.652-5.488.631-5.506-.342-.285-1.572-1.596-2.263-5.845-.572-3.51-1.634-4.902-1.643-4.916a1.414 1.414 0 0 1 .217-1.968 1.397 1.397 0 0 1 1.956.184c.155.187 1.545 1.95 2.245 6.248.534 3.281 1.365 4.203 1.373 4.212 1.374 1.183 3.157 4.712-.268 9.278-.275.37-.697.564-1.125.564z"></path></g><!----></svg>